<?xml version="1.0" encoding="utf-8"?>
<!-- Generator: Adobe Illustrator 16.0.0, SVG Export Plug-In . SVG Version: 6.00 Build 0)  -->
<!DOCTYPE svg PUBLIC "-//W3C//DTD SVG 1.1//EN" "http://www.w3.org/Graphics/SVG/1.1/DTD/svg11.dtd">
<svg version="1.1" id="Calque_1" xmlns="http://www.w3.org/2000/svg" xmlns:xlink="http://www.w3.org/1999/xlink" x="0px" y="0px"
	 width="76.25px" height="32px" viewBox="0 0 76.25 32" enable-background="new 0 0 76.25 32" xml:space="preserve">
<g>
	<path d="M0,13.337c0,0,3.098-9.214,21.604-12.867c0.874,3.177,4.448,5.877,9.373,7.148l0.074-7.148l3.104,4.13
		c1.111-0.477,2.461-0.795,3.971-0.795s2.859,0.318,3.971,0.795l3.104-4.13l0.074,7.148c4.925-1.351,8.499-3.971,9.373-7.148
		C73.152,4.123,76.25,13.337,76.25,13.337c-3.574,0-6.592,2.621-7.068,6.115c-1.43-0.873-3.098-1.351-4.846-1.351
		c-4.766,0-8.736,3.495-9.452,8.102c-1.747-2.064-4.288-3.335-7.228-3.335c-5.242,0-9.531,4.288-9.531,9.531
		c0-5.243-4.289-9.531-9.531-9.531c-2.939,0-5.48,1.271-7.229,3.335c-0.715-4.606-4.686-8.102-9.451-8.102
		c-1.748,0-3.416,0.478-4.846,1.351C6.592,15.958,3.574,13.337,0,13.337L0,13.337z"/>
</g>
</svg>
